<svg xmlns="http://www.w3.org/2000/svg" viewBox="0 0 128 128">
  <rect width="128" height="128" rx="24" fill="#1f6b4a"/>
  <path fill="#f2c14e" d="M30 60c0-18 14-32 34-32s34 14 34 32-14 32-34 32-34-14-34-32Z"/>
  <path fill="#17231d" d="M45 34c6-4 13-6 19-6 7 0 13 2 19 6-5 8-10 17-10 26s5 18 10 26c-6 4-12 6-19 6-6 0-13-2-19-6 5-8 10-17 10-26s-5-18-10-26Z"/>
  <path fill="#fff8d7" d="M26 49c-10-10-17-13-20-9-4 5 2 18 18 28 2-7 4-13 2-19Zm76 0c10-10 17-13 20-9 4 5-2 18-18 28-2-7-4-13-2-19Z" opacity=".86"/>
  <circle cx="51" cy="55" r="5" fill="#17231d"/>
  <circle cx="77" cy="55" r="5" fill="#17231d"/>
</svg>
